<?xml version="1.0" encoding="iso-8859-1"?>
<!-- Generator: Adobe Illustrator 19.0.0, SVG Export Plug-In . SVG Version: 6.00 Build 0)  -->
<svg version="1.1" id="Capa_1" xmlns="http://www.w3.org/2000/svg" xmlns:xlink="http://www.w3.org/1999/xlink" x="0px" y="0px"
	 viewBox="0 0 512 512" style="enable-background:new 0 0 512 512;" xml:space="preserve">
<g>
	<g>
		<path d="M413.091,125.091H17.455C7.814,125.091,0,132.905,0,142.545v308.364c0,9.641,7.814,17.455,17.455,17.455h395.636
			c9.641,0,17.455-7.814,17.455-17.455V142.545C430.545,132.905,422.732,125.091,413.091,125.091z M395.636,433.455H34.909V160
			h360.727V433.455z"/>
	</g>
</g>
<g>
	<g>
		<path d="M175.709,182.115c-26.944,0-48.873,21.929-48.873,48.873c0,26.944,21.923,48.867,48.873,48.867
			s48.873-21.923,48.873-48.867C224.582,204.044,202.653,182.115,175.709,182.115z M175.709,244.94
			c-7.697,0-13.964-6.26-13.964-13.958c0-7.697,6.26-13.964,13.964-13.964c7.697,0,13.964,6.26,13.964,13.964
			C189.673,238.679,183.407,244.94,175.709,244.94z"/>
	</g>
</g>
<g>
	<g>
		<path d="M355.119,384.57l-83.782-132.655c-2.973-4.707-8.012-7.715-13.562-8.093c-5.702-0.378-10.961,1.92-14.545,6.173
			l-64.087,76.108l-27.613-19.729c-3.788-2.7-8.5-3.793-13.062-3.008c-4.579,0.78-8.663,3.351-11.34,7.145l-51.782,73.315
			c-3.764,5.324-4.241,12.305-1.245,18.095c3.002,5.789,8.977,9.425,15.5,9.425h250.764c6.359,0,12.218-3.462,15.284-9.03
			C358.72,396.748,358.516,389.946,355.119,384.57z M123.299,376.436l22.214-31.453l26.449,18.892
			c7.401,5.277,17.635,3.991,23.5-2.961l59.101-70.179l54.132,85.702H123.299z"/>
	</g>
</g>
<g>
	<g>
		<path d="M494.545,43.636H93.091c-9.641,0-17.455,7.814-17.455,17.455v81.455h34.909v-64h366.545v274.036h-62.836v34.909h80.291
			c9.641,0,17.455-7.814,17.455-17.455V61.091C512,51.45,504.186,43.636,494.545,43.636z"/>
	</g>
</g>
<g>
</g>
<g>
</g>
<g>
</g>
<g>
</g>
<g>
</g>
<g>
</g>
<g>
</g>
<g>
</g>
<g>
</g>
<g>
</g>
<g>
</g>
<g>
</g>
<g>
</g>
<g>
</g>
<g>
</g>
</svg>
